<svg width="107" height="27" viewBox="0 0 107 27" fill="none" xmlns="http://www.w3.org/2000/svg">
<rect opacity="0.1" x="0.5" y="0.5" width="106" height="26" fill="#D9D9D9" stroke="#1F1F1F"/>
<path d="M14.322 18.132C13.7573 18.132 13.2623 18.033 12.837 17.835C12.4117 17.6297 12.0817 17.3437 11.847 16.977C11.6123 16.6103 11.495 16.1813 11.495 15.69H12.65C12.6573 15.9687 12.7233 16.2253 12.848 16.46C12.98 16.6873 13.167 16.8707 13.409 17.01C13.6583 17.142 13.9627 17.208 14.322 17.208C14.63 17.208 14.894 17.1567 15.114 17.054C15.3413 16.9513 15.5137 16.812 15.631 16.636C15.7483 16.4527 15.807 16.2437 15.807 16.009C15.807 15.7377 15.7447 15.514 15.62 15.338C15.4953 15.162 15.3267 15.019 15.114 14.909C14.9087 14.7917 14.6667 14.689 14.388 14.601C14.1167 14.513 13.8307 14.4177 13.53 14.315C12.9213 14.117 12.4667 13.8603 12.166 13.545C11.8727 13.2297 11.726 12.819 11.726 12.313C11.726 11.8803 11.8287 11.5063 12.034 11.191C12.2393 10.8683 12.5253 10.619 12.892 10.443C13.266 10.2597 13.706 10.168 14.212 10.168C14.7107 10.168 15.147 10.2597 15.521 10.443C15.895 10.6263 16.1883 10.8793 16.401 11.202C16.6137 11.5247 16.72 11.9023 16.72 12.335H15.554C15.554 12.137 15.5027 11.9427 15.4 11.752C15.2973 11.5613 15.1433 11.4073 14.938 11.29C14.7327 11.1653 14.4797 11.103 14.179 11.103C13.9297 11.0957 13.706 11.136 13.508 11.224C13.31 11.312 13.156 11.4403 13.046 11.609C12.936 11.7777 12.881 11.9793 12.881 12.214C12.881 12.4487 12.9287 12.6393 13.024 12.786C13.1267 12.9253 13.2733 13.0463 13.464 13.149C13.6547 13.2517 13.8747 13.347 14.124 13.435C14.3807 13.5157 14.663 13.6073 14.971 13.71C15.3523 13.8347 15.6897 13.9887 15.983 14.172C16.2837 14.348 16.5183 14.579 16.687 14.865C16.863 15.1437 16.951 15.503 16.951 15.943C16.951 16.3243 16.852 16.68 16.654 17.01C16.456 17.34 16.1627 17.6113 15.774 17.824C15.3853 18.0293 14.9013 18.132 14.322 18.132ZM23.3741 18V10.3H24.4741V18H23.3741ZM18.4791 18V10.3H19.5791V18H18.4791ZM19.3921 14.524V13.622H23.6161V14.524H19.3921ZM25.8095 18L28.6365 10.3H29.8355L32.6625 18H31.4855L29.2305 11.62L26.9645 18H25.8095ZM27.0855 16.097L27.3935 15.217H31.0125L31.3205 16.097H27.0855ZM33.9796 18V10.3H36.5866C37.1953 10.3 37.6939 10.4027 38.0826 10.608C38.4713 10.8133 38.7573 11.0883 38.9406 11.433C39.1313 11.7703 39.2266 12.1553 39.2266 12.588C39.2266 12.9987 39.1313 13.38 38.9406 13.732C38.7573 14.0767 38.4676 14.3553 38.0716 14.568C37.6756 14.7733 37.1696 14.876 36.5536 14.876H35.0796V18H33.9796ZM38.0276 18L36.3666 14.579H37.5766L39.3036 18H38.0276ZM35.0796 14.04H36.5096C37.0523 14.04 37.4519 13.908 37.7086 13.644C37.9653 13.3727 38.0936 13.028 38.0936 12.61C38.0936 12.1847 37.9689 11.8473 37.7196 11.598C37.4703 11.3487 37.0669 11.224 36.5096 11.224H35.0796V14.04ZM40.8705 18V10.3H45.7325V11.202H41.9705V13.666H45.4025V14.546H41.9705V17.098H45.7325V18H40.8705ZM50.4091 18V10.3H53.0381C53.6541 10.3 54.1601 10.4027 54.5561 10.608C54.9521 10.8133 55.2455 11.0883 55.4361 11.433C55.6268 11.7777 55.7221 12.17 55.7221 12.61C55.7221 13.028 55.6268 13.413 55.4361 13.765C55.2528 14.1097 54.9631 14.3883 54.5671 14.601C54.1711 14.8063 53.6615 14.909 53.0381 14.909H51.5091V18H50.4091ZM51.5091 13.996H52.9941C53.5735 13.996 53.9841 13.8713 54.2261 13.622C54.4755 13.3653 54.6001 13.028 54.6001 12.61C54.6001 12.1627 54.4755 11.818 54.2261 11.576C53.9841 11.334 53.5735 11.213 52.9941 11.213H51.5091V13.996ZM57.1282 18V10.3H59.7352C60.3438 10.3 60.8425 10.4027 61.2312 10.608C61.6198 10.8133 61.9058 11.0883 62.0892 11.433C62.2798 11.7703 62.3752 12.1553 62.3752 12.588C62.3752 12.9987 62.2798 13.38 62.0892 13.732C61.9058 14.0767 61.6162 14.3553 61.2202 14.568C60.8242 14.7733 60.3182 14.876 59.7022 14.876H58.2282V18H57.1282ZM61.1762 18L59.5152 14.579H60.7252L62.4522 18H61.1762ZM58.2282 14.04H59.6582C60.2008 14.04 60.6005 13.908 60.8572 13.644C61.1138 13.3727 61.2422 13.028 61.2422 12.61C61.2422 12.1847 61.1175 11.8473 60.8682 11.598C60.6188 11.3487 60.2155 11.224 59.6582 11.224H58.2282V14.04ZM67.4841 18.132C66.7434 18.132 66.0907 17.967 65.5261 17.637C64.9687 17.2997 64.5287 16.834 64.2061 16.24C63.8907 15.6387 63.7331 14.942 63.7331 14.15C63.7331 13.3653 63.8907 12.676 64.2061 12.082C64.5287 11.4807 64.9687 11.0113 65.5261 10.674C66.0907 10.3367 66.7434 10.168 67.4841 10.168C68.2394 10.168 68.8994 10.3367 69.4641 10.674C70.0287 11.0113 70.4651 11.4807 70.7731 12.082C71.0884 12.676 71.2461 13.3653 71.2461 14.15C71.2461 14.942 71.0884 15.6387 70.7731 16.24C70.4651 16.834 70.0287 17.2997 69.4641 17.637C68.8994 17.967 68.2394 18.132 67.4841 18.132ZM67.4951 17.153C68.0231 17.153 68.4851 17.032 68.8811 16.79C69.2771 16.548 69.5814 16.2033 69.7941 15.756C70.0141 15.3087 70.1241 14.7733 70.1241 14.15C70.1241 13.5267 70.0141 12.9913 69.7941 12.544C69.5814 12.0967 69.2771 11.7557 68.8811 11.521C68.4851 11.279 68.0231 11.158 67.4951 11.158C66.9671 11.158 66.5051 11.279 66.1091 11.521C65.7131 11.7557 65.4051 12.0967 65.1851 12.544C64.9651 12.9913 64.8551 13.5267 64.8551 14.15C64.8551 14.7733 64.9651 15.3087 65.1851 15.756C65.4051 16.2033 65.7131 16.548 66.1091 16.79C66.5051 17.032 66.9671 17.153 67.4951 17.153ZM72.7898 18V10.3H77.5748V11.202H73.8898V13.699H76.9698V14.579H73.8898V18H72.7898ZM78.9717 18V10.3H80.0717V18H78.9717ZM81.8988 18V10.3H82.9988V17.131H86.5188V18H81.8988ZM88.027 18V10.3H92.889V11.202H89.127V13.666H92.559V14.546H89.127V17.098H92.889V18H88.027Z" fill="black"/>
</svg>
