<svg width="14" height="8" viewBox="0 0 14 8" fill="none" xmlns="http://www.w3.org/2000/svg">
<path d="M6.58447 7.66846C6.29639 7.66846 6.03271 7.55127 5.79346 7.31689L0.27832 1.67725C0.185547 1.57959 0.114746 1.47461 0.065918 1.3623C0.0219727 1.25 0 1.12549 0 0.98877C0 0.808105 0.0439453 0.64209 0.131836 0.490723C0.219727 0.339355 0.336914 0.219727 0.483398 0.131836C0.634766 0.0439453 0.800781 0 0.981445 0C1.25488 0 1.49414 0.100098 1.69922 0.300293L6.92139 5.66162H6.25488L11.4624 0.300293C11.6675 0.100098 11.9067 0 12.1802 0C12.3608 0 12.5244 0.0439453 12.6709 0.131836C12.8223 0.219727 12.9419 0.339355 13.0298 0.490723C13.1177 0.64209 13.1616 0.808105 13.1616 0.98877C13.1616 1.25732 13.0664 1.48438 12.876 1.66992L7.37549 7.31689C7.2583 7.43408 7.13379 7.52197 7.00195 7.58057C6.875 7.63428 6.73584 7.66357 6.58447 7.66846Z" fill="white" fill-opacity="0.23" style="mix-blend-mode:lighten"/>
<path d="M6.58447 7.66846C6.29639 7.66846 6.03271 7.55127 5.79346 7.31689L0.27832 1.67725C0.185547 1.57959 0.114746 1.47461 0.065918 1.3623C0.0219727 1.25 0 1.12549 0 0.98877C0 0.808105 0.0439453 0.64209 0.131836 0.490723C0.219727 0.339355 0.336914 0.219727 0.483398 0.131836C0.634766 0.0439453 0.800781 0 0.981445 0C1.25488 0 1.49414 0.100098 1.69922 0.300293L6.92139 5.66162H6.25488L11.4624 0.300293C11.6675 0.100098 11.9067 0 12.1802 0C12.3608 0 12.5244 0.0439453 12.6709 0.131836C12.8223 0.219727 12.9419 0.339355 13.0298 0.490723C13.1177 0.64209 13.1616 0.808105 13.1616 0.98877C13.1616 1.25732 13.0664 1.48438 12.876 1.66992L7.37549 7.31689C7.2583 7.43408 7.13379 7.52197 7.00195 7.58057C6.875 7.63428 6.73584 7.66357 6.58447 7.66846Z" fill="#545454" style="mix-blend-mode:color-dodge"/>
<path d="M6.58447 7.66846C6.29639 7.66846 6.03271 7.55127 5.79346 7.31689L0.27832 1.67725C0.185547 1.57959 0.114746 1.47461 0.065918 1.3623C0.0219727 1.25 0 1.12549 0 0.98877C0 0.808105 0.0439453 0.64209 0.131836 0.490723C0.219727 0.339355 0.336914 0.219727 0.483398 0.131836C0.634766 0.0439453 0.800781 0 0.981445 0C1.25488 0 1.49414 0.100098 1.69922 0.300293L6.92139 5.66162H6.25488L11.4624 0.300293C11.6675 0.100098 11.9067 0 12.1802 0C12.3608 0 12.5244 0.0439453 12.6709 0.131836C12.8223 0.219727 12.9419 0.339355 13.0298 0.490723C13.1177 0.64209 13.1616 0.808105 13.1616 0.98877C13.1616 1.25732 13.0664 1.48438 12.876 1.66992L7.37549 7.31689C7.2583 7.43408 7.13379 7.52197 7.00195 7.58057C6.875 7.63428 6.73584 7.66357 6.58447 7.66846Z" fill="black"/>
</svg>
